<svg width="24" height="24" viewBox="589.005 104 23.983 23.985" fill="#00BEB4" xmlns="http://www.w3.org/2000/svg">
<path d="M611.705 121.478C610.953 121.478 610.343 120.868 610.343 120.115V117.023C610.342 116.514 610.138 116.025 609.778 115.666C609.417 115.306 608.929 115.103 608.42 115.103H603.883C602.613 115.103 601.584 114.074 601.584 112.804V111.892C601.584 111.126 602.205 110.506 602.971 110.506C603.139 110.506 603.305 110.473 603.461 110.409C603.616 110.345 603.757 110.25 603.876 110.132C603.995 110.013 604.09 109.872 604.154 109.717C604.219 109.561 604.252 109.395 604.252 109.227V105.28C604.252 104.94 604.117 104.615 603.876 104.375C603.636 104.135 603.31 104 602.971 104H599.021C598.853 104 598.686 104.033 598.531 104.097C598.375 104.161 598.234 104.256 598.115 104.374C597.996 104.493 597.901 104.634 597.837 104.79C597.773 104.945 597.739 105.112 597.739 105.28V109.225C597.739 109.394 597.773 109.56 597.837 109.716C597.901 109.871 597.996 110.012 598.115 110.131C598.234 110.25 598.375 110.344 598.531 110.409C598.686 110.473 598.853 110.506 599.021 110.506C599.73 110.506 600.306 111.081 600.306 111.79V112.805C600.306 114.075 599.276 115.104 598.006 115.104H593.572C593.063 115.105 592.574 115.307 592.214 115.667C591.853 116.027 591.65 116.515 591.649 117.025V120.115C591.649 120.868 591.039 121.478 590.287 121.478C589.947 121.478 589.621 121.614 589.381 121.854C589.14 122.094 589.005 122.42 589.005 122.76V126.705C589.005 126.873 589.038 127.04 589.102 127.195C589.167 127.351 589.261 127.492 589.38 127.611C589.499 127.729 589.641 127.824 589.796 127.888C589.952 127.952 590.118 127.985 590.287 127.985H594.239C594.408 127.985 594.574 127.952 594.73 127.888C594.885 127.824 595.026 127.729 595.145 127.611C595.264 127.492 595.359 127.351 595.423 127.195C595.488 127.04 595.521 126.873 595.521 126.705V122.76C595.521 122.42 595.385 122.094 595.145 121.854C594.905 121.614 594.579 121.479 594.239 121.479C593.517 121.479 592.931 120.894 592.931 120.171V117.023C592.931 116.853 592.999 116.69 593.119 116.57C593.239 116.45 593.402 116.383 593.572 116.383H597.756C599.163 116.383 600.304 117.524 600.304 118.931V120.196C600.304 120.905 599.73 121.479 599.021 121.479C598.681 121.479 598.356 121.614 598.115 121.854C597.875 122.094 597.74 122.42 597.739 122.76V126.706C597.74 126.875 597.773 127.041 597.837 127.196C597.902 127.351 597.996 127.492 598.115 127.611C598.234 127.73 598.376 127.824 598.531 127.888C598.686 127.952 598.853 127.985 599.021 127.985H602.974C603.142 127.985 603.308 127.952 603.464 127.888C603.619 127.824 603.76 127.73 603.879 127.611C603.998 127.492 604.093 127.351 604.157 127.196C604.222 127.041 604.255 126.875 604.255 126.706V122.76C604.255 122.42 604.12 122.094 603.879 121.854C603.639 121.614 603.313 121.479 602.974 121.479C602.207 121.479 601.586 120.858 601.586 120.091V118.931C601.586 117.524 602.727 116.383 604.134 116.383H608.421C608.591 116.383 608.754 116.45 608.874 116.57C608.994 116.69 609.062 116.853 609.063 117.023V120.169C609.063 120.892 608.477 121.478 607.754 121.478C607.414 121.478 607.089 121.613 606.848 121.853C606.608 122.093 606.473 122.418 606.472 122.758V126.703C606.472 126.872 606.506 127.038 606.57 127.194C606.634 127.349 606.729 127.49 606.848 127.609C606.967 127.728 607.108 127.822 607.264 127.887C607.419 127.951 607.586 127.984 607.754 127.984H611.707C611.875 127.984 612.042 127.951 612.197 127.887C612.353 127.822 612.494 127.728 612.613 127.609C612.732 127.49 612.826 127.349 612.891 127.194C612.955 127.038 612.988 126.872 612.988 126.703V122.758C612.988 122.418 612.852 122.093 612.612 121.853C612.371 121.613 612.045 121.478 611.705 121.478ZM599.021 107.253C599.021 106.163 599.908 105.28 600.997 105.28C602.087 105.28 602.974 106.163 602.974 107.253C602.974 108.342 602.087 109.225 600.997 109.225C599.908 109.225 599.021 108.342 599.021 107.253ZM594.239 124.731C594.239 125.82 593.352 126.703 592.263 126.703C591.173 126.703 590.287 125.82 590.287 124.731C590.287 123.641 591.173 122.758 592.263 122.758C593.352 122.758 594.239 123.641 594.239 124.731ZM602.972 126.704C602.972 126.703 602.972 126.703 602.972 126.703H600.994C599.904 126.703 599.021 125.82 599.021 124.731C599.021 123.641 599.904 122.758 600.994 122.758H601.818C602.456 122.758 602.974 123.276 602.974 123.914V126.703C602.974 126.704 602.973 126.704 602.972 126.704ZM611.707 126.703H609.725C608.636 126.703 607.752 125.82 607.752 124.731C607.752 123.641 608.639 122.758 609.729 122.758C610.818 122.758 611.705 123.641 611.705 124.731V126.702C611.705 126.703 611.706 126.703 611.707 126.703Z"/>
</svg>
